 http://img13.imageshack.us/img13/580/dreamhouse.jpg


Verenigde Staten
Drama / Mystery
92 minuten

geregisseerd door Jim Sheridan
met Daniel Craig, Rachel Weisz en Naomi Watts

De succesvolle uitgever Will Atenton (Daniel Craig) stopt met zijn baan in New York om, samen met zijn vrouw Libby (Rachel Weisz) en twee dochters, te verhuizen naar een schilderachtig dorpje in New England. Maar dan komen ze erachter dat in hun perfecte huis een moeder en haar kinderen zijn vermoord. Het hele dorp is van mening dat haar man, de enige overlevende, de dader is. Wanneer Will deze tragedie onderzoekt, komt zijn enige aanwijzing van Ann Paterson (Naomi Watts). Zij is een buurvrouw die goed bevriend was met de familie. Will en Ann proberen samen het verontrustende mysterie op te lossen.



Nl subs




Screenshots:
 
http://postimage.org/image/e3d4hkw7b/ 
http://postimage.org/image/wwyxekufb/ 
http://postimage.org/image/72p4osufb/ 
http://postimage.org/image/hqxh1dts7/



INFO;

Format                                   : Matroska
Format version                           : Version 2
File size                                : 2.18 GiB
Duration                                 : 1h 30mn
Overall bit rate                         : 3 431 Kbps
Encoded date                             : UTC 2012-02-04 11:57:00
Writing application                      : mkvmerge v3.3.0 ('Language') built on Mar 24 2010 14:59:24
Writing library                          : libebml v0.8.0 + libmatroska v0.9.0

Video
ID                                       : 1
Format                                   : MPEG-4 Visual
Format profile                           : Advanced Simple@L5
Format settings, BVOP                    : Yes
Format settings, QPel                    : No
Format settings, GMC                     : No warppoints
Format settings, Matrix                  : Custom
Codec ID                                 : XVID
Codec ID/Hint                            : XviD
Duration                                 : 1h 30mn
Bit rate                                 : 2 915 Kbps
Width                                    : 1 280 pixels
Height                                   : 542 pixels
Display aspect ratio                     : 2.35:1
Frame rate                               : 23.976 fps
Color space                              : YUV
Chroma subsampling                       : 4:2:0
Bit depth                                : 8 bits
Scan type                                : Progressive
Compression mode                         : Lossy
Bits/(Pixel*Frame)                       : 0.175
Stream size                              : 1.85 GiB (85%)
Writing library                          : XviD 1.2.1 (UTC 2008-12-04)
Default                                  : Yes
Forced                                   : No

Audio
ID                                       : 2
Format                                   : AC-3
Format/Info                              : Audio Coding 3
Mode extension                           : CM (complete main)
Codec ID                                 : A_AC3
Duration                                 : 1h 30mn
Bit rate mode                            : Constant
Bit rate                                 : 448 Kbps
Channel(s)                               : 6 channels
Channel positions                        : Front: L C R, Side: L R, LFE
Sampling rate                            : 48.0 KHz
Bit depth                                : 16 bits
Compression mode                         : Lossy
Stream size                              : 291 MiB (13%)
Default                                  : Yes
Forced                                   : No

Text
ID                                       : 3
Format                                   : UTF-8
Codec ID                                 : S_TEXT/UTF8
Codec ID/Info                            : UTF-8 Plain Text
Language                                 : Dutch
Default                                  : Yes
Forced                                   : Yes



 
http://www.imdb.com/title/tt1462041/ 
http://www.moviemeter.nl/film/73735




Deze film wordt u aangeboden door het DutchReleaseTeam.
Voor de reviews van de nieuwste films, muziek, series, games etc
ga dan eens naar http://www.hetmultimediacafe.be/